HIERARCHY
ROOT Root
{
	OFFSET 0.000000 0.000000 0.000000 
	CHANNELS 6 Xposition Yposition Zposition Xrotation Yrotation Zrotation
	JOINT LHIP
	{
		OFFSET 3.939827 0.000000 0.000000 
		CHANNELS 3 Xrotation  Yrotation Zrotation
		JOINT LKNEE
		{
			OFFSET 0.000000 -17.893505 0.000000 
			CHANNELS 3 Xrotation  Yrotation Zrotation
			JOINT LANK
			{
				OFFSET 0.000000 -15.102188 0.000000 
				CHANNELS 3 Xrotation  Yrotation Zrotation
				JOINT LTOES
				{
					OFFSET 0.000000 0.000000 5.934456 
					CHANNELS 3 Xrotation  Yrotation Zrotation
					End Site
					{
						OFFSET 0.000000 0.000000 2.922160 
					}
				}
			}
		}
	}
	JOINT RHIP
	{
		OFFSET -3.939827 0.000000 0.000000 
		CHANNELS 3 Xrotation  Yrotation Zrotation
		JOINT RKNEE
		{
			OFFSET 0.000000 -17.893505 0.000000 
			CHANNELS 3 Xrotation  Yrotation Zrotation
			JOINT RANK
			{
				OFFSET 0.000000 -15.102188 0.000000 
				CHANNELS 3 Xrotation  Yrotation Zrotation
				JOINT RTOES
				{
					OFFSET 0.000000 0.000000 5.934456 
					CHANNELS 3 Xrotation  Yrotation Zrotation
					End Site
					{
						OFFSET 0.000000 0.000000 2.922160 
					}
				}
			}
		}
	}
	JOINT LOWBACKTARGET
	{
		OFFSET 0.000000 0.000000 0.000000 
		CHANNELS 3 Xrotation  Yrotation Zrotation
		JOINT LOWERBACK
		{
			OFFSET 0.000000 6.803836 0.000000 
			CHANNELS 3 Xrotation  Yrotation Zrotation
			JOINT UPPERBACK
			{
				OFFSET 0.000000 6.818373 0.000000 
				CHANNELS 3 Xrotation  Yrotation Zrotation
				JOINT THORAX
				{
					OFFSET 0.000000 6.818374 0.000000 
					CHANNELS 3 Xrotation  Yrotation Zrotation
					JOINT LSHOROTATE
					{
						OFFSET 0.000000 0.000000 0.000000 
						CHANNELS 3 Xrotation  Yrotation Zrotation
						JOINT LSHO
						{
							OFFSET 6.795113 0.000000 0.000000 
							CHANNELS 3 Xrotation  Yrotation Zrotation
							JOINT LUPARMROLL
							{
								OFFSET 6.609026 0.000000 0.000000 
								CHANNELS 3 Xrotation  Yrotation Zrotation
								JOINT LELB
								{
									OFFSET 6.611931 0.000000 0.000000 
									CHANNELS 3 Xrotation  Yrotation Zrotation
									JOINT LWRIROLL
									{
										OFFSET 5.117413 0.000000 0.000000 
										CHANNELS 3 Xrotation  Yrotation Zrotation
										JOINT LWRI
										{
											OFFSET 5.117413 0.000000 0.000000 
											CHANNELS 3 Xrotation  Yrotation Zrotation
											End Site
											{
												OFFSET 3.151861 0.000000 0.000000 
											}
										}
									}
								}
							}
						}
					}
					JOINT RSHOROTATE
					{
						OFFSET 0.000000 0.000000 0.000000 
						CHANNELS 3 Xrotation  Yrotation Zrotation
						JOINT RSHO
						{
							OFFSET -6.795113 0.000000 0.000000 
							CHANNELS 3 Xrotation  Yrotation Zrotation
							JOINT RUPARMROLL
							{
								OFFSET -6.609026 0.000000 0.000000 
								CHANNELS 3 Xrotation  Yrotation Zrotation
								JOINT RELB
								{
									OFFSET -6.611931 0.000000 0.000000 
									CHANNELS 3 Xrotation  Yrotation Zrotation
									JOINT RWRIROLL
									{
										OFFSET -5.117413 0.000000 0.000000 
										CHANNELS 3 Xrotation  Yrotation Zrotation
										JOINT RWRI
										{
											OFFSET -5.117413 0.000000 0.000000 
											CHANNELS 3 Xrotation  Yrotation Zrotation
											End Site
											{
												OFFSET -3.151861 0.000000 0.000000 
											}
										}
									}
								}
							}
						}
					}
					JOINT NECKTARGET
					{
						OFFSET 0.000000 0.000000 0.000000 
						CHANNELS 3 Xrotation  Yrotation Zrotation
						JOINT HEAD
						{
							OFFSET 0.000000 4.175345 0.000000 
							CHANNELS 3 Xrotation  Yrotation Zrotation
							End Site
							{
								OFFSET 0.000000 4.134638 0.000000 
							}
						}
					}
				}
			}
		}
	}
}
MOTION
Frames: 7
Frame Time: 0.016667
-0.580384 36.422356 -0.401384 -12.807965 2.285174 -0.327028 15.747158 1.054217 14.987499 5.242331 -0.182280 -2.207020 34.435665 1.061989 -13.501562 -40.826008 -0.037112 -0.021221 18.764753 -0.754725 -4.434943 6.378757 -0.345286 -3.054176 25.392256 -11.109302 17.870615 -33.282429 -0.048041 -0.002544 -175.935760 -2.001848 -179.095245 174.239456 0.777269 179.785370 1.568484 -0.874602 1.860907 0.000000 -0.428790 0.000000 -0.000000 -6.940582 -12.457594 -0.855337 16.671738 -48.668850 37.370583 0.000000 0.000000 0.000000 -38.335114 0.000000 28.425001 0.000000 0.000000 -5.664440 -14.358285 -21.799944 -0.000004 7.666689 16.060650 -2.833430 -3.108389 50.747417 32.095078 0.000000 0.000000 0.000000 28.370047 0.000000 4.141838 0.000000 0.000000 3.708028 -7.409356 26.682219 1.325034 0.111646 3.388318 5.279191 9.359062 -2.809332 
-0.585575 36.422356 -0.405941 -12.808556 2.254150 -0.352416 15.730679 1.108862 15.016439 5.249712 -0.187719 -2.212951 34.454647 1.031193 -13.475801 -40.771648 -0.019364 -0.036497 18.764023 -0.733164 -4.412736 6.363198 -0.349125 -3.063071 25.367912 -11.060387 17.876783 -33.425350 -0.040101 -0.030424 -175.926102 -2.015243 -179.097549 174.239471 0.773511 179.793610 1.558540 -0.874680 1.860476 0.000000 -0.428843 0.000000 0.000000 -6.942728 -12.467340 -0.861537 16.681932 -48.698715 37.349110 0.000000 0.000000 0.000000 -38.284008 0.000000 28.458090 0.000000 0.000000 -5.666415 -14.370815 -21.790009 -0.000007 7.684609 16.028563 -2.815590 -3.072884 50.812153 32.042442 0.000000 0.000000 0.000000 28.322159 0.000000 4.088127 0.000000 0.000000 3.740692 -7.497870 26.613253 1.325385 0.109239 3.347183 5.281704 9.370516 -2.830913 
-0.590767 36.422356 -0.410499 -12.809158 2.223126 -0.377804 15.714165 1.163500 15.045392 5.257090 -0.193158 -2.218884 34.473648 1.000405 -13.450028 -40.717293 -0.001630 -0.051791 18.763277 -0.711603 -4.390528 6.347637 -0.352962 -3.071966 25.343580 -11.011480 17.882971 -33.568302 -0.032091 -0.058283 -175.916443 -2.028637 -179.099838 174.239487 0.769754 179.801849 1.548596 -0.874758 1.860045 0.000000 -0.428896 0.000000 -0.000000 -6.944872 -12.477085 -0.867732 16.692127 -48.728542 37.327663 0.000000 0.000000 0.000000 -38.232906 0.000000 28.491186 0.000000 0.000000 -5.668396 -14.383359 -21.780081 0.000000 7.702527 15.996466 -2.797791 -3.037361 50.876888 31.989805 0.000000 0.000000 0.000000 28.274284 0.000000 4.034418 0.000000 0.000000 3.773256 -7.586428 26.544327 1.325734 0.106832 3.306047 5.284223 9.381968 -2.852497 
-0.598395 36.422356 -0.414896 -12.792645 2.170603 -0.390320 15.691827 1.238047 15.050343 5.249170 -0.193962 -2.209757 34.484264 0.986190 -13.450247 -40.716766 -0.010428 -0.024308 18.737806 -0.677916 -4.388542 6.325878 -0.352203 -3.057005 25.384264 -11.025381 17.798893 -33.507908 -0.040679 -0.029088 -175.913651 -2.044996 -179.086761 174.249893 0.767535 179.787857 1.539420 -0.856178 1.869488 0.000000 -0.428799 0.000000 0.000004 -6.970068 -12.491098 -0.856111 16.703773 -48.757648 37.307434 0.000000 0.000000 0.000000 -38.204853 0.000000 28.524307 0.000000 0.000000 -5.653144 -14.362238 -21.754938 -0.000001 7.710163 15.994230 -2.792119 -3.030491 50.959301 31.791832 0.000000 0.000000 0.000000 28.209808 0.000000 4.158067 0.000000 0.000000 3.768397 -7.557975 26.600454 1.359920 0.110907 3.308249 5.220106 9.332457 -2.888004 
-0.606023 36.422356 -0.419293 -12.776148 2.118076 -0.402821 15.669480 1.312590 15.055325 5.241249 -0.194768 -2.200632 34.494892 0.971974 -13.450466 -40.716232 -0.019226 0.003174 18.712328 -0.644231 -4.386539 6.304121 -0.351450 -3.042043 25.424944 -11.039338 17.714828 -33.447510 -0.049237 0.000115 -175.910873 -2.061353 -179.073700 174.260284 0.765313 179.773865 1.530241 -0.837600 1.878933 0.000000 -0.428702 0.000000 0.000003 -6.995257 -12.505113 -0.844481 16.715410 -48.786762 37.287243 0.000000 0.000000 0.000000 -38.176811 0.000000 28.557440 0.000000 0.000000 -5.637907 -14.341104 -21.729809 0.000000 7.717791 15.991983 -2.786456 -3.023614 51.041725 31.593908 0.000000 0.000000 0.000000 28.145336 0.000000 4.281713 0.000000 0.000000 3.763511 -7.529531 26.656593 1.394105 0.114984 3.310449 5.155971 9.282987 -2.923562 
-0.613555 36.422356 -0.422227 -12.769813 2.099433 -0.418308 15.650728 1.361683 15.075206 5.243442 -0.203647 -2.193239 34.500023 0.957810 -13.442199 -40.858902 -0.017952 0.004933 18.699230 -0.640372 -4.372437 6.298439 -0.342111 -3.028880 25.422798 -11.050621 17.694927 -33.465309 -0.039914 0.014259 -175.909790 -2.065400 -179.066772 174.258469 0.773737 179.761993 1.526895 -0.828808 1.888504 0.000000 -0.439298 0.000000 0.000003 -6.990976 -12.503551 -0.841928 16.719360 -48.847923 37.271507 0.000000 0.000000 0.000000 -38.152126 0.000000 28.539131 0.000000 0.000000 -5.631549 -14.338720 -21.710670 -0.000002 7.731319 15.983331 -2.791148 -3.018676 51.128784 31.524950 0.000000 0.000000 0.000000 28.102396 0.000000 4.294511 0.000000 0.000000 3.767468 -7.531500 26.674772 1.392845 0.115183 3.303632 5.137777 9.298285 -2.920004 
-0.621025 36.422356 -0.424188 -12.770235 2.103381 -0.435790 15.634355 1.393807 15.105043 5.252378 -0.217906 -2.187000 34.501530 0.943677 -13.428277 -41.097122 -0.009914 -0.010429 18.694389 -0.656396 -4.350275 6.303471 -0.327047 -3.016919 25.392128 -11.060097 17.717783 -33.535240 -0.018690 0.018381 -175.909836 -2.061242 -179.063950 174.248505 0.789260 179.751587 1.527439 -0.826539 1.898155 0.000000 -0.457022 0.000000 0.000003 -6.967048 -12.491605 -0.845431 16.718182 -48.930443 37.258766 0.000000 0.000000 0.000000 -38.129665 0.000000 28.486544 0.000000 0.000000 -5.631108 -14.348838 -21.695530 -0.000003 7.748773 15.970408 -2.802742 -3.015047 51.218914 31.541950 0.000000 0.000000 0.000000 28.073811 0.000000 4.233414 0.000000 0.000000 3.777332 -7.553748 26.667654 1.367956 0.112801 3.290806 5.150197 9.356741 -2.890351 
